<svg width="19" height="13" viewBox="0 0 19 13" fill="none" xmlns="http://www.w3.org/2000/svg">
<path d="M18.2416 5.69976L12.5859 0.148118C12.5117 0.0766859 12.4176 0.0283624 12.3155 0.00920905C12.2134 -0.00994433 12.1078 0.00092516 12.0119 0.0404542C11.9161 0.0799832 11.8343 0.146412 11.7767 0.231407C11.7192 0.316403 11.6885 0.416182 11.6885 0.518228C11.6873 0.586238 11.7008 0.65373 11.7281 0.716251C11.7554 0.778772 11.7959 0.834901 11.8469 0.880935L16.5902 5.55172H0.527869C0.387869 5.55172 0.253604 5.60631 0.154609 5.70348C0.0556146 5.80066 0 5.93245 0 6.06987C0 6.2073 0.0556146 6.33909 0.154609 6.43626C0.253604 6.53344 0.387869 6.58803 0.527869 6.58803H16.5902L11.8393 11.2514C11.7889 11.2994 11.7488 11.3569 11.7216 11.4206C11.6944 11.4842 11.6805 11.5525 11.681 11.6215C11.6788 11.7245 11.7083 11.8258 11.7658 11.9121C11.8233 11.9983 11.906 12.0654 12.0031 12.1047C12.1002 12.1439 12.2071 12.1534 12.3097 12.1319C12.4124 12.1104 12.506 12.0589 12.5784 11.9842L18.2341 6.43258C18.2845 6.38547 18.3248 6.32891 18.3526 6.26624C18.3803 6.20357 18.395 6.13607 18.3957 6.06774C18.3964 5.9994 18.3831 5.93163 18.3567 5.86842C18.3302 5.80521 18.2911 5.74786 18.2416 5.69976Z" fill="#1A1A1A"/>
</svg>
