<svg width="18" height="20" viewBox="0 0 18 20" fill="none" xmlns="http://www.w3.org/2000/svg">
<path d="M13.4648 4.69484C13.4979 3.49295 13.0563 2.32639 12.2356 1.44771C11.4149 0.569024 10.2812 0.0489219 9.07981 0L8.14085 0C6.9395 0.0489219 5.80576 0.569024 4.98507 1.44771C4.16438 2.32639 3.72278 3.49295 3.75587 4.69484H0V20H17.2582V4.69484H13.4648ZM8.1784 1.22066H9.11737C9.98157 1.28797 10.7861 1.68743 11.3621 2.33521C11.9381 2.98298 12.2408 3.82869 12.2066 4.69484H5.01408C4.98073 3.81652 5.29369 2.96024 5.88554 2.31043C6.4774 1.66062 7.3008 1.26927 8.1784 1.22066ZM16.0376 18.7793H1.22066V5.91549H3.75587V7.43662H4.97653V5.91549H12.2254V7.40845H13.446V5.91549H16.0094L16.0376 18.7793Z" fill="#1A1A1A"/>
</svg>
