<svg width="20" height="20" viewBox="0 0 20 20" fill="none" xmlns="http://www.w3.org/2000/svg">
<path d="M2.5 2.03182C2.16848 2.03182 1.85054 2.15812 1.61612 2.38295C1.3817 2.60777 1.25 2.91269 1.25 3.23064V12.8211C1.25 13.1391 1.3817 13.444 1.61612 13.6688C1.85054 13.8937 2.16848 14.02 2.5 14.02H14.4825C15.1455 14.0201 15.7813 14.2728 16.25 14.7225L18.75 17.1201V3.23064C18.75 2.91269 18.6183 2.60777 18.3839 2.38295C18.1495 2.15812 17.8315 2.03182 17.5 2.03182H2.5ZM17.5 0.833008C18.163 0.833008 18.7989 1.08561 19.2678 1.53526C19.7366 1.9849 20 2.59475 20 3.23064V18.5671C20 18.6857 19.9633 18.8016 19.8945 18.9002C19.8257 18.9988 19.728 19.0756 19.6138 19.1209C19.4995 19.1662 19.3737 19.178 19.2525 19.1547C19.1312 19.1315 19.0198 19.0742 18.9325 18.9902L15.3663 15.57C15.1319 15.3452 14.814 15.2188 14.4825 15.2188H2.5C1.83696 15.2188 1.20107 14.9662 0.732233 14.5165C0.263392 14.0669 0 13.457 0 12.8211V3.23064C0 2.59475 0.263392 1.9849 0.732233 1.53526C1.20107 1.08561 1.83696 0.833008 2.5 0.833008L17.5 0.833008Z" fill="black"/>
<path d="M6.25 8.02694C6.25 8.34489 6.1183 8.64981 5.88388 8.87463C5.64946 9.09945 5.33152 9.22576 5 9.22576C4.66848 9.22576 4.35054 9.09945 4.11612 8.87463C3.8817 8.64981 3.75 8.34489 3.75 8.02694C3.75 7.709 3.8817 7.40407 4.11612 7.17925C4.35054 6.95443 4.66848 6.82812 5 6.82813C5.33152 6.82812 5.64946 6.95443 5.88388 7.17925C6.1183 7.40407 6.25 7.709 6.25 8.02694ZM11.25 8.02694C11.25 8.34489 11.1183 8.64981 10.8839 8.87463C10.6495 9.09945 10.3315 9.22576 10 9.22576C9.66848 9.22576 9.35054 9.09945 9.11612 8.87463C8.8817 8.64981 8.75 8.34489 8.75 8.02694C8.75 7.709 8.8817 7.40407 9.11612 7.17925C9.35054 6.95443 9.66848 6.82812 10 6.82813C10.3315 6.82812 10.6495 6.95443 10.8839 7.17925C11.1183 7.40407 11.25 7.709 11.25 8.02694ZM16.25 8.02694C16.25 8.34489 16.1183 8.64981 15.8839 8.87463C15.6495 9.09945 15.3315 9.22576 15 9.22576C14.6685 9.22576 14.3505 9.09945 14.1161 8.87463C13.8817 8.64981 13.75 8.34489 13.75 8.02694C13.75 7.709 13.8817 7.40407 14.1161 7.17925C14.3505 6.95443 14.6685 6.82812 15 6.82813C15.3315 6.82812 15.6495 6.95443 15.8839 7.17925C16.1183 7.40407 16.25 7.709 16.25 8.02694Z" fill="black"/>
</svg>
