<svg width="23" height="20" viewBox="0 0 23 20" fill="none" xmlns="http://www.w3.org/2000/svg">
<path d="M16.2939 0C15.2731 0.0790525 14.2807 0.37326 13.3817 0.863282C12.4828 1.3533 11.6978 2.02804 11.0782 2.84314C10.4596 2.03174 9.67732 1.35938 8.78221 0.869597C7.88709 0.379817 6.89907 0.0835536 5.88215 0C5.07892 0.00675964 4.2854 0.17633 3.54956 0.498461C2.81372 0.820591 2.15085 1.28859 1.60101 1.87417C1.05117 2.45975 0.625782 3.15074 0.350568 3.90539C0.0753528 4.66003 -0.0439762 5.46264 -0.00020585 6.26471C-0.0115564 7.212 0.173348 8.15139 0.542865 9.02372C0.912381 9.89605 1.45851 10.6824 2.14685 11.3333C2.16752 11.3756 2.19772 11.4125 2.23509 11.4412L10.6174 19.8137C10.7413 19.9329 10.9064 19.9996 11.0782 20C11.2497 19.9977 11.4141 19.9312 11.539 19.8137L20.1959 11.1471L20.2841 11.0686L20.5096 10.8431C20.5498 10.807 20.583 10.7638 20.6076 10.7157C21.6201 9.45408 22.1671 7.88228 22.1567 6.26471C22.2004 5.46427 22.0816 4.66327 21.8076 3.90993C21.5336 3.15659 21.11 2.4665 20.5622 1.88119C20.0145 1.29589 19.3539 0.827492 18.6204 0.504194C17.8869 0.180897 17.0955 0.00939007 16.2939 0V0ZM20.8527 6.26471C20.8631 7.61121 20.4018 8.91886 19.5488 9.96078L19.4312 10.0882L11.0782 18.4314L3.23509 10.6471C3.19779 10.5851 3.15154 10.5289 3.09783 10.4804C2.50977 9.9487 2.04201 9.29758 1.72585 8.57056C1.40968 7.84355 1.25239 7.0574 1.2645 6.26471C1.2245 5.63169 1.31397 4.99717 1.52743 4.39989C1.74089 3.80261 2.07387 3.25511 2.50603 2.79084C2.93818 2.32657 3.46045 1.95527 4.04092 1.69961C4.6214 1.44396 5.24789 1.30932 5.88215 1.30392C8.35274 1.30392 10.5292 4.2451 10.5488 4.29412C10.614 4.37584 10.6968 4.44183 10.791 4.48718C10.8852 4.53253 10.9884 4.55607 11.0929 4.55607C11.1975 4.55607 11.3007 4.53253 11.3949 4.48718C11.4891 4.44183 11.5718 4.37584 11.637 4.29412C11.637 4.29412 13.8429 1.35294 16.3135 1.35294C16.9367 1.3691 17.5504 1.50996 18.1183 1.76721C18.6861 2.02447 19.1967 2.3929 19.6198 2.85075C20.043 3.3086 20.3701 3.84658 20.5818 4.43294C20.7936 5.01931 20.8857 5.64215 20.8527 6.26471Z" fill="#1A1A1A"/>
</svg>
