<svg width="16" height="16" viewBox="0 0 16 16" fill="none" xmlns="http://www.w3.org/2000/svg">
<path d="M7.99997 6.75C8.16573 6.75 8.3247 6.81585 8.44191 6.93306C8.55912 7.05027 8.62497 7.20924 8.62497 7.375V11.125C8.62497 11.2908 8.55912 11.4497 8.44191 11.5669C8.3247 11.6842 8.16573 11.75 7.99997 11.75C7.83421 11.75 7.67524 11.6842 7.55803 11.5669C7.44082 11.4497 7.37497 11.2908 7.37497 11.125V7.375C7.37497 7.20924 7.44082 7.05027 7.55803 6.93306C7.67524 6.81585 7.83421 6.75 7.99997 6.75Z" fill="#9E9E9E"/>
<path d="M7.99997 5.8125C8.12308 5.8125 8.24499 5.78825 8.35874 5.74114C8.47248 5.69402 8.57583 5.62497 8.66288 5.53791C8.74994 5.45086 8.81899 5.34751 8.86611 5.23377C8.91322 5.12002 8.93747 4.99811 8.93747 4.875C8.93747 4.75189 8.91322 4.62998 8.86611 4.51623C8.81899 4.40249 8.74994 4.29914 8.66288 4.21209C8.57583 4.12503 8.47248 4.05598 8.35874 4.00886C8.24499 3.96175 8.12308 3.9375 7.99997 3.9375C7.75166 3.9375 7.51352 4.03614 7.33794 4.21172C7.16236 4.3873 7.06372 4.62544 7.06372 4.87375C7.06372 5.12206 7.16236 5.3602 7.33794 5.53578C7.51352 5.71136 7.75166 5.81 7.99997 5.81V5.8125Z" fill="#9E9E9E"/>
<path d="M0.499969 8C0.499969 7.01509 0.693963 6.03982 1.07087 5.12987C1.44778 4.21993 2.00023 3.39314 2.69667 2.6967C3.39311 2.00026 4.2199 1.44781 5.12984 1.0709C6.03979 0.693993 7.01506 0.5 7.99997 0.5C8.98488 0.5 9.96015 0.693993 10.8701 1.0709C11.78 1.44781 12.6068 2.00026 13.3033 2.6967C13.9997 3.39314 14.5522 4.21993 14.9291 5.12987C15.306 6.03982 15.5 7.01509 15.5 8C15.5 9.98912 14.7098 11.8968 13.3033 13.3033C11.8967 14.7098 9.98909 15.5 7.99997 15.5C6.01085 15.5 4.10319 14.7098 2.69667 13.3033C1.29015 11.8968 0.49997 9.98912 0.499969 8ZM7.99997 1.75C6.34237 1.75 4.75265 2.40848 3.58055 3.58058C2.40845 4.75269 1.74997 6.3424 1.74997 8C1.74997 9.6576 2.40845 11.2473 3.58055 12.4194C4.75265 13.5915 6.34237 14.25 7.99997 14.25C9.65757 14.25 11.2473 13.5915 12.4194 12.4194C13.5915 11.2473 14.25 9.6576 14.25 8C14.25 6.3424 13.5915 4.75269 12.4194 3.58058C11.2473 2.40848 9.65757 1.75 7.99997 1.75Z" fill="#9E9E9E"/>
</svg>
