<svg width="20" height="20" viewBox="0 0 20 20" fill="none" xmlns="http://www.w3.org/2000/svg">
<path d="M17.8125 3.75H6.40622C6.32028 3.75 6.24997 3.82031 6.24997 3.90625V5C6.24997 5.08594 6.32028 5.15625 6.40622 5.15625H17.8125C17.8984 5.15625 17.9687 5.08594 17.9687 5V3.90625C17.9687 3.82031 17.8984 3.75 17.8125 3.75ZM17.8125 9.29688H6.40622C6.32028 9.29688 6.24997 9.36719 6.24997 9.45312V10.5469C6.24997 10.6328 6.32028 10.7031 6.40622 10.7031H17.8125C17.8984 10.7031 17.9687 10.6328 17.9687 10.5469V9.45312C17.9687 9.36719 17.8984 9.29688 17.8125 9.29688ZM17.8125 14.8438H6.40622C6.32028 14.8438 6.24997 14.9141 6.24997 15V16.0938C6.24997 16.1797 6.32028 16.25 6.40622 16.25H17.8125C17.8984 16.25 17.9687 16.1797 17.9687 16.0938V15C17.9687 14.9141 17.8984 14.8438 17.8125 14.8438ZM2.03122 4.45312C2.03122 4.59676 2.05951 4.73899 2.11448 4.87168C2.16944 5.00438 2.25001 5.12496 2.35157 5.22652C2.45314 5.32809 2.57371 5.40865 2.70641 5.46362C2.83911 5.51858 2.98134 5.54688 3.12497 5.54688C3.2686 5.54688 3.41083 5.51858 3.54353 5.46362C3.67623 5.40865 3.7968 5.32809 3.89837 5.22652C3.99993 5.12496 4.0805 5.00438 4.13546 4.87168C4.19043 4.73899 4.21872 4.59676 4.21872 4.45312C4.21872 4.30949 4.19043 4.16726 4.13546 4.03457C4.0805 3.90187 3.99993 3.78129 3.89837 3.67973C3.7968 3.57816 3.67623 3.4976 3.54353 3.44263C3.41083 3.38767 3.2686 3.35938 3.12497 3.35938C2.98134 3.35938 2.83911 3.38767 2.70641 3.44263C2.57371 3.4976 2.45314 3.57816 2.35157 3.67973C2.25001 3.78129 2.16944 3.90187 2.11448 4.03457C2.05951 4.16726 2.03122 4.30949 2.03122 4.45312ZM2.03122 10C2.03122 10.1436 2.05951 10.2859 2.11448 10.4186C2.16944 10.5513 2.25001 10.6718 2.35157 10.7734C2.45314 10.875 2.57371 10.9555 2.70641 11.0105C2.83911 11.0655 2.98134 11.0938 3.12497 11.0938C3.2686 11.0938 3.41083 11.0655 3.54353 11.0105C3.67623 10.9555 3.7968 10.875 3.89837 10.7734C3.99993 10.6718 4.0805 10.5513 4.13546 10.4186C4.19043 10.2859 4.21872 10.1436 4.21872 10C4.21872 9.85637 4.19043 9.71414 4.13546 9.58144C4.0805 9.44874 3.99993 9.32817 3.89837 9.2266C3.7968 9.12504 3.67623 9.04447 3.54353 8.98951C3.41083 8.93454 3.2686 8.90625 3.12497 8.90625C2.98134 8.90625 2.83911 8.93454 2.70641 8.98951C2.57371 9.04447 2.45314 9.12504 2.35157 9.2266C2.25001 9.32817 2.16944 9.44874 2.11448 9.58144C2.05951 9.71414 2.03122 9.85637 2.03122 10ZM2.03122 15.5469C2.03122 15.6905 2.05951 15.8327 2.11448 15.9654C2.16944 16.0981 2.25001 16.2187 2.35157 16.3203C2.45314 16.4218 2.57371 16.5024 2.70641 16.5574C2.83911 16.6123 2.98134 16.6406 3.12497 16.6406C3.2686 16.6406 3.41083 16.6123 3.54353 16.5574C3.67623 16.5024 3.7968 16.4218 3.89837 16.3203C3.99993 16.2187 4.0805 16.0981 4.13546 15.9654C4.19043 15.8327 4.21872 15.6905 4.21872 15.5469C4.21872 15.4032 4.19043 15.261 4.13546 15.1283C4.0805 14.9956 3.99993 14.875 3.89837 14.7735C3.7968 14.6719 3.67623 14.5913 3.54353 14.5364C3.41083 14.4814 3.2686 14.4531 3.12497 14.4531C2.98134 14.4531 2.83911 14.4814 2.70641 14.5364C2.57371 14.5913 2.45314 14.6719 2.35157 14.7735C2.25001 14.875 2.16944 14.9956 2.11448 15.1283C2.05951 15.261 2.03122 15.4032 2.03122 15.5469Z" fill="#1A1A1A"/>
</svg>
