<svg width="22" height="22" viewBox="0 0 22 22" fill="none" xmlns="http://www.w3.org/2000/svg">
<path d="M0.95 9C0.95 13.4584 4.54162 17.05 9 17.05C13.4584 17.05 17.05 13.4584 17.05 9C17.05 4.54162 13.4584 0.95 9 0.95C4.54162 0.95 0.95 4.54162 0.95 9ZM2.28077 9C2.28077 5.27377 5.27377 2.28077 9 2.28077C12.7262 2.28077 15.7192 5.27377 15.7192 9C15.7192 12.7262 12.7262 15.7192 9 15.7192C5.27377 15.7192 2.28077 12.7262 2.28077 9Z" fill="#1A1A1A" stroke="black" stroke-width="0.1"/>
<path d="M14.9876 13.9646L14.9523 13.9293L14.9169 13.9646L13.9646 14.9169L13.9293 14.9523L13.9646 14.9876L20.0124 21.0354L20.0477 21.0707L20.0831 21.0354L21.0354 20.0831L21.0707 20.0477L21.0354 20.0124L14.9876 13.9646Z" fill="#1A1A1A" stroke="black" stroke-width="0.1"/>
</svg>
