<svg width="20" height="20" viewBox="0 0 20 20" fill="none" xmlns="http://www.w3.org/2000/svg">
<path d="M15 6.66722C15.4421 6.66722 15.866 6.49163 16.1786 6.17907C16.4911 5.86651 16.6667 5.44258 16.6667 5.00056C16.6667 4.55853 16.4911 4.1346 16.1786 3.82204C15.866 3.50948 15.4421 3.33389 15 3.33389C14.558 3.33389 14.1341 3.50948 13.8215 3.82204C13.509 4.1346 13.3334 4.55853 13.3334 5.00056C13.3334 5.44258 13.509 5.86651 13.8215 6.17907C14.1341 6.49163 14.558 6.66722 15 6.66722ZM8.27338 9.36722C8.36062 9.8205 8.35324 10.2869 8.25171 10.7372L12.4517 12.8514C12.975 12.2314 13.7064 11.8235 14.5088 11.7042C15.3113 11.5849 16.1297 11.7623 16.8107 12.2033C17.4917 12.6442 17.9886 13.3184 18.2081 14.0994C18.4276 14.8804 18.3547 15.7147 18.0031 16.4458C17.6515 17.177 17.0454 17.7548 16.2983 18.071C15.5511 18.3872 14.7143 18.4201 13.9447 18.1635C13.1751 17.9068 12.5254 17.3783 12.1176 16.677C11.7097 15.9757 11.5716 15.1497 11.7292 14.3539L7.48754 12.2189C7.03497 12.7265 6.43798 13.0835 5.77668 13.242C5.11539 13.4005 4.42142 13.353 3.78791 13.1058C3.15439 12.8586 2.61164 12.4236 2.23248 11.859C1.85331 11.2945 1.65589 10.6275 1.66668 9.94759C1.67747 9.26764 1.89598 8.60726 2.29287 8.05506C2.68976 7.50286 3.24605 7.08526 3.88709 6.8583C4.52813 6.63134 5.22326 6.60587 5.87919 6.78532C6.53512 6.96477 7.12048 7.34054 7.55671 7.86222L11.7534 5.76056C11.5683 4.97065 11.6777 4.14039 12.0611 3.42537C12.4444 2.71036 13.0753 2.15968 13.8356 1.87656C14.5959 1.59344 15.4333 1.5973 16.1909 1.88744C16.9486 2.17757 17.5744 2.73405 17.9511 3.45258C18.3278 4.1711 18.4295 5.00235 18.2372 5.7905C18.0449 6.57866 17.5717 7.26963 16.9064 7.7339C16.2411 8.19816 15.4293 8.40386 14.6232 8.31242C13.8171 8.22099 13.072 7.8387 12.5275 7.23722L8.27338 9.36722ZM5.00004 11.6672C5.44207 11.6672 5.86599 11.4916 6.17855 11.1791C6.49112 10.8665 6.66671 10.4426 6.66671 10.0006C6.66671 9.55853 6.49112 9.1346 6.17855 8.82204C5.86599 8.50948 5.44207 8.33389 5.00004 8.33389C4.55802 8.33389 4.13409 8.50948 3.82153 8.82204C3.50897 9.1346 3.33338 9.55853 3.33338 10.0006C3.33338 10.4426 3.50897 10.8665 3.82153 11.1791C4.13409 11.4916 4.55802 11.6672 5.00004 11.6672ZM15 16.6672C15.4421 16.6672 15.866 16.4916 16.1786 16.1791C16.4911 15.8665 16.6667 15.4426 16.6667 15.0006C16.6667 14.5585 16.4911 14.1346 16.1786 13.822C15.866 13.5095 15.4421 13.3339 15 13.3339C14.558 13.3339 14.1341 13.5095 13.8215 13.822C13.509 14.1346 13.3334 14.5585 13.3334 15.0006C13.3334 15.4426 13.509 15.8665 13.8215 16.1791C14.1341 16.4916 14.558 16.6672 15 16.6672Z" fill="black"/>
</svg>
