<svg width="20" height="20" viewBox="0 0 20 20" fill="none" xmlns="http://www.w3.org/2000/svg">
<path d="M10 0C8.02219 0 6.08879 0.58649 4.4443 1.6853C2.79981 2.78412 1.51809 4.3459 0.761209 6.17316C0.00433286 8.00043 -0.1937 10.0111 0.192152 11.9509C0.578004 13.8907 1.53041 15.6725 2.92894 17.0711C4.32746 18.4696 6.10929 19.422 8.0491 19.8078C9.98891 20.1937 11.9996 19.9957 13.8268 19.2388C15.6541 18.4819 17.2159 17.2002 18.3147 15.5557C19.4135 13.9112 20 11.9778 20 10C19.9975 7.3486 18.9431 4.80651 17.0683 2.93169C15.1935 1.05687 12.6514 0.00249779 10 0V0ZM10 1.13208C11.6013 1.1307 13.173 1.56339 14.5479 2.38411C15.9229 3.20483 17.0497 4.38289 17.8084 5.79299C18.5672 7.20308 18.9296 8.79247 18.857 10.3921C18.7844 11.9917 18.2796 13.5418 17.3962 14.8774C16.5249 13.7412 15.4118 12.8132 14.1374 12.1605C12.863 11.5078 11.4594 11.1468 10.0283 11.1038C8.58931 11.1269 7.17468 11.479 5.89271 12.1331C4.61074 12.7872 3.4954 13.7259 2.63208 14.8774C1.75005 13.5438 1.2454 11.9963 1.17165 10.3992C1.0979 8.80199 1.45779 7.21463 2.21317 5.80544C2.96854 4.39625 4.09122 3.21777 5.46215 2.39499C6.83308 1.57221 8.40113 1.13581 10 1.13208ZM10 18.8679C8.74827 18.861 7.51228 18.5883 6.37384 18.0678C5.2354 17.5474 4.22047 16.7911 3.39623 15.8491C4.14089 14.7711 5.12985 13.8844 6.28242 13.2614C7.43499 12.6384 8.71853 12.2967 10.0283 12.2641C11.3363 12.3094 12.6165 12.6535 13.771 13.27C14.9255 13.8864 15.9235 14.759 16.6887 15.8208C15.8584 16.7797 14.8311 17.5483 13.6768 18.0742C12.5226 18.6001 11.2684 18.8708 10 18.8679Z" fill="#1A1A1A"/>
<path d="M10.0472 10.2925C10.7417 10.3037 11.4239 10.1081 12.0068 9.73037C12.5898 9.35268 13.0472 8.81006 13.3208 8.17159C13.5944 7.53312 13.6719 6.82768 13.5433 6.14506C13.4147 5.46244 13.0859 4.83352 12.5987 4.33835C12.1116 3.84319 11.4881 3.50418 10.8077 3.36448C10.1272 3.22478 9.42062 3.29071 8.77777 3.55387C8.13492 3.81703 7.58492 4.26553 7.19778 4.84226C6.81063 5.419 6.60385 6.09789 6.60376 6.79251C6.60364 7.71105 6.96461 8.59281 7.60879 9.24759C8.25298 9.90236 9.12874 10.2777 10.0472 10.2925ZM10.0472 4.43402C10.5163 4.43216 10.9754 4.56968 11.3662 4.82916C11.7571 5.08863 12.0621 5.45835 12.2424 5.89141C12.4228 6.32448 12.4705 6.80137 12.3795 7.26158C12.2884 7.72179 12.0627 8.14458 11.7309 8.4763C11.3992 8.80803 10.9764 9.03374 10.5162 9.12481C10.056 9.21588 9.57912 9.16819 9.14606 8.9878C8.71299 8.80741 8.34327 8.50244 8.0838 8.1116C7.82433 7.72075 7.6868 7.26164 7.68866 6.79251C7.69115 6.16777 7.94043 5.56932 8.3822 5.12755C8.82396 4.68579 9.42241 4.43651 10.0472 4.43402Z" fill="#1A1A1A"/>
</svg>
